#format: frame checksums
#version: 2
#hash: MD5
#tb 0: 1/25
#media_type 0: video
#codec_id 0: rawvideo
#dimensions 0: 352x288
#sar 0: 0/1
#tb 1: 1/44100
#media_type 1: audio
#codec_id 1: ac3
#sample_rate 1: 44100
#channel_layout 1: 4
#channel_layout_name 1: mono
#stream#, dts,        pts, duration,     size, hash
1,       -256,       -256,     1536,      416, e3bd415f62aa927e9273151fdf21ebce
0,          0,          0,        1,   152064, 64ffa0d5a62ddf325a92195fda238dd4
1,       1280,       1280,     1536,      418, 6e79527e2af3448d7a0e4a8e29cd9722
0,          1,          1,        1,   152064, d17acf3ef7ce8c8d0ac1c3b89d77d6dc
1,       2816,       2816,     1536,      418, cf49595ac385e497672e5a814f7bcd79
0,          2,          2,        1,   152064, c08a06d8a267f8fb94e64362f8d5f311
1,       4352,       4352,     1536,      418, 846982243d330ab782f0120988d52ade
0,          3,          3,        1,   152064, 029eea5860e7b326dd7e10e2be64a098
1,       5888,       5888,     1536,      418, 77b2d15948434a4831e30c47b8214591
0,          4,          4,        1,   152064, aabca39f06e9b19f84560db8a43de0cf
1,       7424,       7424,     1536,      418, 4fce87d5cce10f6d0268fb398c385af5
0,          5,          5,        1,   152064, 6681a5e5af601bbf0e0318d1f240a955
1,       8960,       8960,     1536,      418, 963f2dac9af4672809521f2174b78f10
1,      10496,      10496,     1536,      418, eb7a20193c157b02f7b5d5abf802af24
0,          6,          6,        1,   152064, 35f466e17c2b3a9de281a0405dd9bc5c
1,      12032,      12032,     1536,      418, 219b234a1e01d3538bfe09fda58b3289
0,          7,          7,        1,   152064, a6af204b9a1a091f5b2e8981a73df3aa
1,      13568,      13568,     1536,      418, ef7bd3e9c13f03aa6676629101a9a8a0
0,          8,          8,        1,   152064, c037c758227f61da1faffb149af750a5
1,      15104,      15104,     1536,      418, c5dda974df7e418d9036dff134aad2ae
0,          9,          9,        1,   152064, 76d1d9e8374070db553c9a89482dc165
1,      16640,      16640,     1536,      418, 48e7a9f574654dd95a325cfec5072254
0,         10,         10,        1,   152064, 9361f2dac0279cb019948694daeff0b1
1,      18176,      18176,     1536,      418, 737d867e328377a3e6623f77f646ea61
0,         11,         11,        1,   152064, 97a544d9c6b8f50afd15fe6dfd4c22a2
1,      19712,      19712,     1536,      418, 5e2a004ad90ba069cecd9fdc1652388c
0,         12,         12,        1,   152064, dec68cf40dcf205f739b909d178310cf
1,      21248,      21248,     1536,      418, c694e51e609bdd00749a04294cbd60fb
1,      22784,      22784,     1536,      418, 6b787ffae0063d9910deebc8b3e98fd4
0,         13,         13,        1,   152064, 6afd4a8feb3f8fc1825d0da292013472
1,      24320,      24320,     1536,      418, eb6d62198a5472a1c179d42cde60b869
0,         14,         14,        1,   152064, d7297857fbfcf3fe0157eafe4114f957
1,      25856,      25856,     1536,      418, 70a6c8e61e8d75f7a310bc7294ad38f6
0,         15,         15,        1,   152064, 3e004f5a07599daec056189f8ab879e6
1,      27392,      27392,     1536,      418, 6847924a11575b3628ccdfd81a2fb1dc
0,         16,         16,        1,   152064, fb8dfc19d47a925f6bbcb8a334a80f2b
1,      28928,      28928,     1536,      418, 6f76bbe03d8b4e0080226247e0e54f96
0,         17,         17,        1,   152064, 8aad1267917e26696593b35aabeaae60
1,      30464,      30464,     1536,      418, c946a8d690aa31fde929678b594cc432
0,         18,         18,        1,   152064, dce70f7213f70a248c1ffd78244a0757
1,      32000,      32000,     1536,      418, 3add3833b86a38c229faf8e602f83dcb
0,         19,         19,        1,   152064, fbe3fa678d3b8d48f1d7fd45cb869241
1,      33536,      33536,     1536,      418, cb51e6a41f5c4a5f01dd94f58210112b
1,      35072,      35072,     1536,      418, 66c3570cb8c11386b0601fe4a6eb7ee0
0,         20,         20,        1,   152064, eef85510c95abc810269888dd5037e38
1,      36608,      36608,     1536,      418, 8b986c15b9ab86432c43cedd1a182e8d
0,         21,         21,        1,   152064, 30ccae29a495eb6157930a3db50ad171
1,      38144,      38144,     1536,      418, 0dd29cc7f63f2afac3eec5e5944165e7
0,         22,         22,        1,   152064, 5cf0001156e38570b830509ec727f956
1,      39680,      39680,     1536,      418, c4c14deb03d5048f8c6101260c617fae
0,         23,         23,        1,   152064, 6686944299e7aea38756b8321a5ad5fd
1,      41216,      41216,     1536,      418, 4a3480d888fa0dd49a7bbf2669b5d3ed
0,         24,         24,        1,   152064, e618b079c3083cc4f4b080b6c6b8f645
1,      42752,      42752,     1536,      418, aaeabe149b9185a6f09c271eb2c656dd
0,         25,         25,        1,   152064, ebf84cc4a497cc56d39e10bed3c0418e
1,      44288,      44288,     1536,      418, 0995488ad1bb84ec4a3e738b568484a4
1,      45824,      45824,     1536,      418, baa39bdfd9f47f7d312312985f59fb72
0,         26,         26,        1,   152064, 10ee72dac1749c7b68f8a9318270953a
1,      47360,      47360,     1536,      418, c25bac736a8c356d0a0f9c9299f88880
0,         27,         27,        1,   152064, 32e3028c0bf5e27d86972a51ce33927c
1,      48896,      48896,     1536,      418, 85378fd6c8b49a1f4c5490ab1e4013ca
0,         28,         28,        1,   152064, 4e1c702e278fbc96775b560780411b53
1,      50432,      50432,     1536,      418, 528e28031145f07336cd2a1b9b324ca6
0,         29,         29,        1,   152064, 51875170b275dcf8cb2842873d1abc0d
1,      51968,      51968,     1536,      418, cc9b907fc92fffc61f7e41cdb863d586
0,         30,         30,        1,   152064, 6736c7ebe76b018e2dccc9f556d727d7
1,      53504,      53504,     1536,      418, fe2f2ca279b14d7053349111578b48c0
0,         31,         31,        1,   152064, 55e737c788faaace7a743f35dd22a7b1
1,      55040,      55040,     1536,      418, 5f2c6037aa4b89572a4ed712082ae2ab
0,         32,         32,        1,   152064, c32f42d61cb27de2cc635bde32b54373
1,      56576,      56576,     1536,      418, 17a096694df972c2ef3a9abbe0a9cd6a
1,      58112,      58112,     1536,      418, c96a64bbfd1aae269e44bfdaea7c8a9c
0,         33,         33,        1,   152064, 8df299932ddbd1cbe0492153bcd8bf64
1,      59648,      59648,     1536,      418, 5f9297244e107134c49fc4982f5a7c1f
0,         34,         34,        1,   152064, 5f2991318136713262e7b6a92b59c6b0
1,      61184,      61184,     1536,      418, da740d2d75b51d6e28bcb068f6a90d41
0,         35,         35,        1,   152064, 50165b1bbc952dd30555bebc4109acf0
1,      62720,      62720,     1536,      418, 76e6bbbbfa0692659d0d84a30dcfff34
0,         36,         36,        1,   152064, 328fdca858926e5a4d76ab4a44271d80
1,      64256,      64256,     1536,      418, 0bd304182f1693b18c46b0faa682b159
0,         37,         37,        1,   152064, e176eb165793b670e80d4efed7914b27
1,      65792,      65792,     1536,      418, ecf7bd4ba9161338ce2cefc1fdd06098
0,         38,         38,        1,   152064, d5169722734afcfd59338fdf678061c9
1,      67328,      67328,     1536,      418, 4953c0e441ca0ca2e1970b8b31d6c70e
0,         39,         39,        1,   152064, 11be200f8992671b98582f8c74e3fa9c
1,      68864,      68864,     1536,      418, 4eb7f24aa46b8f0e6b47d0ca6ec0d56d
1,      70400,      70400,     1536,      418, df4d73a6acccd3be6663188f4baab996
0,         40,         40,        1,   152064, 284b53308efcdd04f6a1354587c35039
1,      71936,      71936,     1536,      418, 5e60f266106b86f19749b64d86b11f43
0,         41,         41,        1,   152064, 7fd6e166b4ed2532d7f1ed6cb0d7a543
1,      73472,      73472,     1536,      418, cedea148c5f7ddba6f0fbcbe17e6bfbb
0,         42,         42,        1,   152064, 7457fb074429971b94b481abac0ac56d
1,      75008,      75008,     1536,      416, 97655498b413a59b3f0f6bdc25f69084
0,         43,         43,        1,   152064, 3f248b7349d32fb74b6b1693ee5bc7f5
1,      76544,      76544,     1536,      418, 0bea3f23db7aafefe50710310af25a9b
0,         44,         44,        1,   152064, 0ed14ef328b2f6b96610c6af5c1bea5a
1,      78080,      78080,     1536,      418, e763b383810d9a4645901c0d93f98a32
0,         45,         45,        1,   152064, b17bdbf4e1a6a290e13ea7a894cb2eb5
1,      79616,      79616,     1536,      418, f090bb15688066a9c5129348f86245e7
0,         46,         46,        1,   152064, 0168630f3f8b11a113cb29061923a043
1,      81152,      81152,     1536,      418, beb8658ede31b44326de936b28a2d740
1,      82688,      82688,     1536,      418, 53987c0214550f387ce03093b83f4225
0,         47,         47,        1,   152064, 4c4e88381433d7b42d932b05d8a36b19
1,      84224,      84224,     1536,      418, d3c37c202144070892528cc0a0ff3112
0,         48,         48,        1,   152064, 7e1909756725d22780a3b7bd3e55f111
1,      85760,      85760,     1536,      418, cf52ea7fc69e4c5bc8f75b354dfe60af
0,         49,         49,        1,   152064, d66198ab70484ebc20408dee544893a8
1,      87296,      87296,     1536,      418, 78ab22657a1b6c8a0e5b8612ceb8081d
